<svg width="24" height="24" viewBox="0 0 24 24" fill="none" xmlns="http://www.w3.org/2000/svg">
<g clip-path="url(#clip0_280_1161)">
<path d="M13.49 5.47998C14.59 5.47998 15.49 4.57998 15.49 3.47998C15.49 2.37998 14.59 1.47998 13.49 1.47998C12.39 1.47998 11.49 2.37998 11.49 3.47998C11.49 4.57998 12.39 5.47998 13.49 5.47998ZM10.32 17.48L10.89 14.98L12.99 16.98V21.98C12.99 22.53 13.44 22.98 13.99 22.98C14.54 22.98 14.99 22.53 14.99 21.98V16.34C14.99 15.79 14.77 15.27 14.37 14.89L12.89 13.48L13.49 10.48C14.56 11.72 16.11 12.61 17.85 12.89C18.45 12.98 18.99 12.5 18.99 11.89C18.99 11.4 18.63 10.99 18.14 10.91C16.62 10.66 15.36 9.75998 14.69 8.57998L13.69 6.97998C13.29 6.37998 12.69 5.97998 11.99 5.97998C11.69 5.97998 11.49 6.07998 11.19 6.07998L7.20999 7.75998C6.46999 8.07998 5.98999 8.79998 5.98999 9.60998V11.98C5.98999 12.53 6.43999 12.98 6.98999 12.98C7.53999 12.98 7.98999 12.53 7.98999 11.98V9.57998L9.78999 8.87998L8.18999 16.98L4.26999 16.18C3.72999 16.07 3.19999 16.42 3.08999 16.96V17C2.97999 17.54 3.32999 18.07 3.86999 18.18L7.97999 19C9.03999 19.21 10.08 18.54 10.32 17.48V17.48Z" fill="#CADBF4"/>
</g>
<defs>
<clipPath id="clip0_280_1161">
<rect width="24" height="24" fill="white"/>
</clipPath>
</defs>
</svg>
