<svg width="120" height="42" viewBox="0 0 120 42" fill="none" xmlns="http://www.w3.org/2000/svg">
<path fill-rule="evenodd" clip-rule="evenodd" d="M4.92593 2.33333H37.0741C38.5059 2.33333 39.6667 3.49408 39.6667 4.92593V37.0741C39.6667 38.5059 38.5059 39.6667 37.0741 39.6667H4.92593C3.49408 39.6667 2.33333 38.5059 2.33333 37.0741V4.92593C2.33333 3.49408 3.49408 2.33333 4.92593 2.33333ZM12.3136 9.6179C10.8248 9.6179 9.61784 10.8249 9.61784 12.3137C9.61784 13.2676 10.1133 14.1057 10.8609 14.5849C11.2763 14.8455 11.7677 14.9961 12.2943 14.9961H29.7057C30.2312 14.9961 30.7218 14.846 31.1367 14.5864C31.8856 14.1075 32.3821 13.2686 32.3821 12.3137C32.3821 10.8249 31.1752 9.6179 29.6863 9.6179H12.3136ZM9.61784 18.9033C9.61784 17.4145 10.8248 16.2075 12.3136 16.2075H15.908C16.7673 16.2075 17.5327 16.6096 18.0263 17.2359C18.3848 17.6944 18.5984 18.2716 18.5984 18.8986C18.5984 20.2804 17.5612 21.4199 16.2228 21.5809C16.1195 21.5929 16.0145 21.5991 15.908 21.5991H12.3136C10.8248 21.5991 9.61784 20.3921 9.61784 18.9033ZM29.6863 21.5991H26.092C24.6031 21.5991 23.3962 20.3921 23.3962 18.9033C23.3962 17.4145 24.6031 16.2075 26.092 16.2075H29.6863C31.1752 16.2075 32.3821 17.4145 32.3821 18.9033C32.3821 20.3921 31.1752 21.5991 29.6863 21.5991ZM16.507 32.3822H11.7146C10.5566 32.3822 9.61784 31.4434 9.61784 30.2854C9.61784 29.5896 9.95678 28.973 10.4786 28.5916C10.8217 28.3479 11.2411 28.2047 11.6939 28.2047H16.4971C17.6576 28.2047 18.5984 29.1455 18.5984 30.3061C18.5984 30.4781 18.5778 30.6452 18.5388 30.8052C18.3076 31.7118 17.4856 32.3822 16.507 32.3822ZM11.3123 22.8357C10.3468 23.0234 9.61784 23.8735 9.61784 24.8939C9.61784 26.0519 10.5566 26.9906 11.7146 26.9906H13.5117C14.0452 26.9906 14.5321 26.7914 14.9022 26.4633C15.3285 26.0787 15.5965 25.5219 15.5965 24.9025C15.5965 23.742 14.6557 22.8012 13.4951 22.8012H11.6939C11.5636 22.8012 11.4361 22.813 11.3123 22.8357ZM30.2854 26.9906H18.9033C17.7453 26.9906 16.8065 26.0519 16.8065 24.8939C16.8065 24.1641 17.1795 23.5213 17.7451 23.1458C18.0763 22.9279 18.4727 22.8012 18.8987 22.8012H30.3061C30.4364 22.8012 30.564 22.813 30.6877 22.8358C31.6532 23.0234 32.3821 23.8735 32.3821 24.8939C32.3821 26.0519 31.4434 26.9906 30.2854 26.9906Z" fill="#DDF2FF" class="noStroke"/>
<path d="M54 15L66 27M66 15L54 27" stroke="#DDF2FF" stroke-width="3"/>
<path d="M111.912 9.51145C109.468 8.41606 106.888 7.63896 104.237 7.2C103.875 7.83468 103.546 8.48769 103.254 9.15628C100.431 8.73982 97.56 8.73982 94.7369 9.15628C94.4444 8.48776 94.1163 7.83477 93.7538 7.2C91.1017 7.64266 88.5198 8.42162 86.0733 9.51719C81.2163 16.5518 79.8996 23.4117 80.558 30.1743C83.4023 32.2315 86.586 33.7962 89.9706 34.8C90.7327 33.7966 91.4071 32.7321 91.9865 31.618C90.8859 31.2155 89.8236 30.7189 88.8119 30.1342C89.0782 29.9452 89.3386 29.7503 89.5902 29.5614C92.5339 30.9165 95.7469 31.6193 98.9998 31.6193C102.253 31.6193 105.466 30.9165 108.41 29.5614C108.664 29.7647 108.925 29.9594 109.188 30.1342C108.174 30.72 107.11 31.2173 106.008 31.6209C106.586 32.7345 107.261 33.7982 108.023 34.8C111.411 33.8002 114.597 32.2364 117.442 30.1771C118.214 22.3348 116.122 15.5379 111.912 9.51145ZM92.8204 26.0154C90.9859 26.0154 89.4703 24.3857 89.4703 22.3807C89.4703 20.3757 90.9332 18.7315 92.8145 18.7315C94.6959 18.7315 96.1998 20.3757 96.1676 22.3807C96.1355 24.3857 94.6901 26.0154 92.8204 26.0154ZM105.179 26.0154C103.342 26.0154 101.832 24.3857 101.832 22.3807C101.832 20.3757 103.295 18.7315 105.179 18.7315C107.064 18.7315 108.556 20.3757 108.524 22.3807C108.491 24.3857 107.049 26.0154 105.179 26.0154Z" fill="#DDF2FF" class="noStroke"/>
</svg>
