<svg width="25" height="24" viewBox="0 0 25 24" fill="none" xmlns="http://www.w3.org/2000/svg">
    <path d="M19.8783 5.43512C18.4816 4.80918 17.0072 4.36512 15.4928 4.11429C15.2855 4.47696 15.0979 4.85011 14.931 5.23216C13.3177 4.99418 11.6772 4.99418 10.0639 5.23216C9.89683 4.85015 9.70932 4.47701 9.50215 4.11429C7.98668 4.36724 6.51133 4.81236 5.11331 5.43839C2.33789 9.45819 1.58551 13.3781 1.9617 17.2424C3.58705 18.418 5.40629 19.3121 7.34033 19.8857C7.77582 19.3124 8.16118 18.7041 8.4923 18.0674C7.86338 17.8374 7.25634 17.5537 6.67824 17.2195C6.83039 17.1116 6.97919 17.0002 7.12298 16.8922C8.80511 17.6666 10.6411 18.0682 12.4999 18.0682C14.3588 18.0682 16.1948 17.6666 17.8769 16.8922C18.0223 17.0084 18.1712 17.1197 18.3216 17.2195C17.7424 17.5543 17.1343 17.8385 16.5043 18.0691C16.835 18.7055 17.2204 19.3132 17.6562 19.8857C19.5919 19.3144 21.4126 18.4208 23.0382 17.2441C23.4796 12.7628 22.2842 8.87879 19.8783 5.43512ZM8.9688 14.866C7.9205 14.866 7.05443 13.9347 7.05443 12.789C7.05443 11.6433 7.8904 10.7037 8.96546 10.7037C10.0405 10.7037 10.8999 11.6433 10.8815 12.789C10.8631 13.9347 10.0372 14.866 8.9688 14.866ZM16.031 14.866C14.9811 14.866 14.1183 13.9347 14.1183 12.789C14.1183 11.6433 14.9544 10.7037 16.031 10.7037C17.1078 10.7037 17.9605 11.6433 17.9421 12.789C17.9237 13.9347 17.0994 14.866 16.031 14.866Z" class="noStroke"/>
</svg>
