<svg width="120" height="43" viewBox="0 0 120 43" fill="none" xmlns="http://www.w3.org/2000/svg">
<path fill-rule="evenodd" clip-rule="evenodd" d="M4.92593 2.83333H37.0741C38.5059 2.83333 39.6667 3.99408 39.6667 5.42593V37.5741C39.6667 39.0059 38.5059 40.1667 37.0741 40.1667H4.92593C3.49408 40.1667 2.33333 39.0059 2.33333 37.5741V5.42593C2.33333 3.99408 3.49408 2.83333 4.92593 2.83333ZM12.3136 10.1179C10.8248 10.1179 9.61784 11.3249 9.61784 12.8137C9.61784 13.7676 10.1133 14.6057 10.8609 15.0849C11.2763 15.3455 11.7677 15.4961 12.2943 15.4961H29.7057C30.2312 15.4961 30.7218 15.346 31.1367 15.0864C31.8856 14.6075 32.3821 13.7686 32.3821 12.8137C32.3821 11.3249 31.1752 10.1179 29.6863 10.1179H12.3136ZM9.61784 19.4033C9.61784 17.9145 10.8248 16.7075 12.3136 16.7075H15.908C16.7673 16.7075 17.5327 17.1096 18.0263 17.7359C18.3848 18.1944 18.5984 18.7716 18.5984 19.3986C18.5984 20.7804 17.5612 21.9199 16.2228 22.0809C16.1195 22.0929 16.0145 22.0991 15.908 22.0991H12.3136C10.8248 22.0991 9.61784 20.8921 9.61784 19.4033ZM29.6863 22.0991H26.092C24.6031 22.0991 23.3962 20.8921 23.3962 19.4033C23.3962 17.9145 24.6031 16.7075 26.092 16.7075H29.6863C31.1752 16.7075 32.3821 17.9145 32.3821 19.4033C32.3821 20.8921 31.1752 22.0991 29.6863 22.0991ZM16.507 32.8822H11.7146C10.5566 32.8822 9.61784 31.9434 9.61784 30.7854C9.61784 30.0896 9.95678 29.473 10.4786 29.0916C10.8217 28.8479 11.2411 28.7047 11.6939 28.7047H16.4971C17.6576 28.7047 18.5984 29.6455 18.5984 30.8061C18.5984 30.9781 18.5778 31.1452 18.5388 31.3052C18.3076 32.2118 17.4856 32.8822 16.507 32.8822ZM11.3123 23.3357C10.3468 23.5234 9.61784 24.3735 9.61784 25.3939C9.61784 26.5519 10.5566 27.4906 11.7146 27.4906H13.5117C14.0452 27.4906 14.5321 27.2914 14.9022 26.9633C15.3285 26.5787 15.5965 26.0219 15.5965 25.4025C15.5965 24.242 14.6557 23.3012 13.4951 23.3012H11.6939C11.5636 23.3012 11.4361 23.313 11.3123 23.3357ZM30.2854 27.4906H18.9033C17.7453 27.4906 16.8065 26.5519 16.8065 25.3939C16.8065 24.6641 17.1795 24.0213 17.7451 23.6458C18.0763 23.4279 18.4727 23.3012 18.8987 23.3012H30.3061C30.4364 23.3012 30.564 23.313 30.6877 23.3358C31.6532 23.5234 32.3821 24.3735 32.3821 25.3939C32.3821 26.5519 31.4434 27.4906 30.2854 27.4906Z" fill="#E4E5EA" class="svg-elem-1"></path>
<path d="M54 15.5L66 27.5M66 15.5L54 27.5" stroke="#E4E5EA" stroke-width="3" class="svg-elem-2"></path>
<path d="M111.912 10.0115C109.468 8.91606 106.888 8.13896 104.237 7.7C103.875 8.33468 103.546 8.98769 103.254 9.65628C100.431 9.23982 97.56 9.23982 94.7369 9.65628C94.4444 8.98776 94.1163 8.33477 93.7538 7.7C91.1017 8.14266 88.5198 8.92162 86.0733 10.0172C81.2163 17.0518 79.8996 23.9117 80.558 30.6743C83.4023 32.7315 86.586 34.2962 89.9706 35.3C90.7327 34.2966 91.4071 33.2321 91.9865 32.118C90.8859 31.7155 89.8236 31.2189 88.8119 30.6342C89.0782 30.4452 89.3386 30.2503 89.5902 30.0614C92.5339 31.4165 95.7469 32.1193 98.9998 32.1193C102.253 32.1193 105.466 31.4165 108.41 30.0614C108.664 30.2647 108.925 30.4594 109.188 30.6342C108.174 31.22 107.11 31.7173 106.008 32.1209C106.586 33.2345 107.261 34.2982 108.023 35.3C111.411 34.3002 114.597 32.7364 117.442 30.6771C118.214 22.8348 116.122 16.0379 111.912 10.0115ZM92.8204 26.5154C90.9859 26.5154 89.4703 24.8857 89.4703 22.8807C89.4703 20.8757 90.9332 19.2315 92.8145 19.2315C94.6959 19.2315 96.1998 20.8757 96.1676 22.8807C96.1355 24.8857 94.6901 26.5154 92.8204 26.5154ZM105.179 26.5154C103.342 26.5154 101.832 24.8857 101.832 22.8807C101.832 20.8757 103.295 19.2315 105.179 19.2315C107.064 19.2315 108.556 20.8757 108.524 22.8807C108.491 24.8857 107.049 26.5154 105.179 26.5154Z" fill="#E4E5EA" class="svg-elem-3"></path>
</svg>