<svg width="34" height="25" viewBox="0 0 34 25" fill="none" xmlns="http://www.w3.org/2000/svg">
<path d="M28.8012 2.09371C26.5674 1.10151 24.2092 0.397618 21.7868 0C21.4553 0.574897 21.1554 1.16639 20.8882 1.772C18.3079 1.39477 15.6839 1.39477 13.1036 1.772C12.8363 1.16645 12.5364 0.574966 12.2051 0C9.78114 0.400976 7.42135 1.10654 5.18527 2.0989C0.746079 8.47084 -0.457316 14.6845 0.144382 20.81C2.74408 22.6735 5.65389 24.0907 8.74732 25C9.44387 24.0911 10.0602 23.1269 10.5899 22.1176C9.58391 21.7531 8.61298 21.3034 7.68833 20.7737C7.93169 20.6024 8.16969 20.426 8.39967 20.2548C11.0902 21.4823 14.0268 22.1188 16.9999 22.1188C19.9731 22.1188 22.9097 21.4823 25.6002 20.2548C25.8329 20.439 26.0709 20.6154 26.3115 20.7737C25.3851 21.3042 24.4124 21.7548 23.4047 22.1202C23.9337 23.129 24.55 24.0924 25.2472 25C28.3433 24.0943 31.2553 22.6778 33.8555 20.8126C34.5615 13.709 32.6494 7.55241 28.8012 2.09371ZM11.352 17.0429C9.67527 17.0429 8.29003 15.5666 8.29003 13.7505C8.29003 11.9344 9.62714 10.4452 11.3467 10.4452C13.0662 10.4452 14.4407 11.9344 14.4113 13.7505C14.3819 15.5666 13.0608 17.0429 11.352 17.0429ZM22.6479 17.0429C20.9685 17.0429 19.5886 15.5666 19.5886 13.7505C19.5886 11.9344 20.9257 10.4452 22.6479 10.4452C24.3701 10.4452 25.7339 11.9344 25.7045 13.7505C25.6751 15.5666 24.3567 17.0429 22.6479 17.0429Z" fill="white" class="noStroke"/>
</svg>
