<svg width="152" height="152" viewBox="0 0 152 152" fill="none" xmlns="http://www.w3.org/2000/svg">
<g clip-path="url(#clip0_1932_7957)">
<path fill-rule="evenodd" clip-rule="evenodd" d="M99.0863 25.7636C99.075 23.0725 96.358 19.8759 91.7358 19.8557C87.1303 19.8355 84.5071 22.9724 84.5185 25.6168L84.6564 57.3702C84.6674 59.9934 82.5501 62.1293 79.9269 62.1407C77.3038 62.152 75.1674 60.0345 75.1564 57.4113L74.9728 15.0735C74.9611 12.3823 72.2446 9.18589 67.6222 9.16559C63.0167 9.14538 60.3935 12.2823 60.405 14.9267L60.6113 62.5569C60.6227 65.1801 58.5053 67.3159 55.8819 67.3274C53.2587 67.3385 51.1228 65.2212 51.1114 62.5979L51.0197 41.4289C51.008 38.7378 48.2915 35.5413 43.6691 35.521C39.0636 35.5008 36.4404 38.6378 36.4518 41.2822L36.6582 88.9124C36.7458 109.141 55.6871 126.624 80.2478 126.732C104.792 126.84 123.517 109.557 123.429 89.3757L123.291 57.6224C123.28 54.9315 120.564 51.7351 115.941 51.7147C111.336 51.6946 108.712 54.8314 108.724 57.4757L108.816 78.6446C108.821 79.9117 108.32 81.1283 107.424 82.0243C106.529 82.9199 105.312 83.4212 104.045 83.4152C92.7933 83.3655 84.8027 91.2181 84.8396 99.7079C84.8512 102.331 82.7334 104.467 80.1101 104.478C77.4867 104.49 75.3513 102.372 75.3396 99.7489C75.2901 88.2738 83.2808 79.105 93.9652 75.5318C96.9522 74.533 99.2863 71.9191 99.2727 68.7697L99.0863 25.7636Z" fill="#EB746D"/>
<g opacity="0.5">
<path fill-rule="evenodd" clip-rule="evenodd" d="M15.8356 84.11C18.4588 84.099 20.5947 86.2163 20.6061 88.8395C20.651 99.2354 24.189 109.119 30.5358 117.872C32.0759 119.996 31.6027 122.966 29.4788 124.506C27.3552 126.046 24.3851 125.573 22.8449 123.449C15.4694 113.278 11.1609 101.49 11.1062 88.8806C11.0948 86.2573 13.2122 84.1216 15.8356 84.11Z" fill="#EB746D"/>
<path fill-rule="evenodd" clip-rule="evenodd" d="M139.455 53.5589C137.173 44.6688 130.451 37.9949 121.412 35.7217C118.868 35.0818 117.324 32.5006 117.964 29.9566C118.604 27.4124 121.185 25.8687 123.729 26.5086C136.106 29.6214 145.499 38.8945 148.657 51.1969C149.309 53.7379 147.778 56.3265 145.237 56.9787C142.696 57.6311 140.107 56.0999 139.455 53.5589Z" fill="#EB746D"/>
</g>
</g>
<defs>
<clipPath id="clip0_1932_7957">
<rect width="152" height="152" fill="white"/>
</clipPath>
</defs>
</svg>
