<svg width="24" height="24" viewBox="0 0 24 24" fill="none" xmlns="http://www.w3.org/2000/svg">
<g clip-path="url(#clip0_280_629)">
<path d="M21.67 18.17L16.95 13.45C16.47 12.97 15.96 12.86 15.37 12.86L12.83 15.4C12.83 15.99 12.94 16.51 13.42 16.98L18.14 21.7C18.53 22.09 19.16 22.09 19.55 21.7L21.67 19.58C22.06 19.2 22.06 18.56 21.67 18.17Z" fill="#CADBF4"/>
<path d="M16.63 9.49001C17.02 9.88001 17.65 9.88001 18.04 9.49001L18.75 8.78001L20.87 10.9C22.04 9.73001 22.04 7.83001 20.87 6.66001L18.04 3.83001C17.65 3.44001 17.02 3.44001 16.63 3.83001L15.92 4.54001V2.00001C15.92 1.38001 15.16 1.05001 14.71 1.50001L12.17 4.04001C11.72 4.49001 12.05 5.25001 12.67 5.25001H15.21L14.5 5.96001C14.11 6.35001 14.11 6.98001 14.5 7.37001L14.85 7.72001L11.96 10.61L7.85 6.48001V5.48001C7.85 5.21001 7.74 4.96001 7.56 4.77001L5.54 2.74001C5.15 2.35001 4.52 2.35001 4.13 2.74001L2.71 4.16001C2.32 4.55001 2.32 5.18001 2.71 5.57001L4.73 7.60001C4.92 7.79001 5.17 7.89001 5.44 7.89001H6.44L10.57 12.02L9.72 12.87H8.42C7.89 12.87 7.38 13.08 7.01 13.46L2.29 18.18C1.9 18.57 1.9 19.2 2.29 19.59L4.41 21.71C4.8 22.1 5.43 22.1 5.82 21.71L10.54 16.99C10.92 16.61 11.13 16.11 11.13 15.58V14.29L16.28 9.14001L16.63 9.49001Z" fill="#CADBF4"/>
</g>
<defs>
<clipPath id="clip0_280_629">
<rect width="24" height="24" fill="white"/>
</clipPath>
</defs>
</svg>
