<svg width="152" height="152" viewBox="0 0 152 152" fill="none" xmlns="http://www.w3.org/2000/svg">
<path d="M75.9993 63.3333C89.9903 63.3333 101.333 51.9912 101.333 38C101.333 24.0087 89.9903 12.6666 75.9993 12.6666C62.0081 12.6666 50.666 24.0087 50.666 38C50.666 51.9912 62.0081 63.3333 75.9993 63.3333Z" fill="#EB746D"/>
<path d="M88.1076 126.614L89.0853 128.306L90.4671 126.924L114.258 103.133L115.64 101.751L113.948 100.774C111.166 99.1662 107.94 98.25 104.501 98.25C94.0532 98.25 85.584 106.719 85.584 117.167C85.584 120.606 86.5002 123.832 88.1076 126.614ZM121.143 108.165L120.185 106.398L118.764 107.819L95.1535 131.43L93.7321 132.851L95.4992 133.809C98.1774 135.261 101.244 136.083 104.501 136.083C114.948 136.083 123.417 127.614 123.417 117.167C123.417 113.91 122.595 110.843 121.143 108.165ZM79.084 117.167C79.084 103.129 90.4635 91.75 104.501 91.75C111.611 91.75 118.046 94.6747 122.655 99.3786C127.144 103.96 129.917 110.243 129.917 117.167C129.917 131.204 118.538 142.583 104.501 142.583C97.5769 142.583 91.2938 139.81 86.7126 135.321C82.0087 130.712 79.084 124.277 79.084 117.167Z" fill="#EB746D" stroke="#16181E" stroke-width="3"/>
<path d="M113.977 91.967C111.029 90.8574 107.835 90.25 104.501 90.25C89.635 90.25 77.584 102.301 77.584 117.167C77.584 124.697 80.6829 131.513 85.6628 136.393C86.6318 137.342 87.6723 138.219 88.7769 139.015C84.923 139.224 80.6778 139.333 76.0006 139.333C25.334 139.333 25.334 126.574 25.334 110.833C25.334 95.0931 48.0182 82.3334 76.0006 82.3334C91.1208 82.3334 104.694 86.0586 113.977 91.967Z" fill="#EB746D"/>
</svg>
