<svg width="256" height="256" viewBox="0 0 256 256" fill="none" xmlns="http://www.w3.org/2000/svg">
<g clip-path="url(#clip0_602_15050)">
<mask id="mask0_602_15050" style="mask-type:luminance" maskUnits="userSpaceOnUse" x="0" y="0" width="256" height="256">
<path d="M238.222 0H17.7778C7.95938 0 0 7.95938 0 17.7778V238.222C0 248.041 7.95938 256 17.7778 256H238.222C248.041 256 256 248.041 256 238.222V17.7778C256 7.95938 248.041 0 238.222 0Z" fill="white"/>
</mask>
<g mask="url(#mask0_602_15050)">
<path fill-rule="evenodd" clip-rule="evenodd" d="M256 0H0V256H256V0Z" fill="url(#paint0_linear_602_15050)"/>
<path d="M64.1871 169.169C56.229 169.169 49.7778 162.718 49.7778 154.76C49.7778 146.802 56.229 140.351 64.1871 140.351H76.538C84.4961 140.351 90.9473 146.802 90.9473 154.76C90.9473 162.718 84.4961 169.169 76.538 169.169H64.1871Z" fill="#B6C7D2"/>
<path d="M49.7778 191.813C49.7778 199.771 56.229 206.222 64.1871 206.222H97.1229C105.081 206.222 111.532 199.771 111.532 191.813C111.532 183.855 105.081 177.403 97.1229 177.403H64.1871C56.229 177.403 49.7778 183.855 49.7778 191.813Z" fill="#B6C7D2"/>
<path d="M68.3041 132.117C58.0722 132.117 49.7778 123.823 49.7778 113.591C49.7778 103.359 58.0722 95.0642 68.3041 95.0642H93.0059C103.238 95.0642 111.532 103.359 111.532 113.591C111.532 123.823 103.238 132.117 93.0059 132.117H68.3041Z" fill="#B6C7D2"/>
<path d="M99.1812 154.76C99.1812 162.718 105.633 169.169 113.591 169.169H191.813C199.771 169.169 206.222 162.718 206.222 154.76C206.222 146.802 199.771 140.351 191.813 140.351H113.591C105.633 140.351 99.1812 146.802 99.1812 154.76Z" fill="#B6C7D2"/>
<path d="M68.3041 86.8306C58.0722 86.8306 49.7778 78.5359 49.7778 68.3041C49.7778 58.0722 58.0722 49.7778 68.3041 49.7778H187.696C197.928 49.7778 206.222 58.0722 206.222 68.3041C206.222 78.5359 197.928 86.8306 187.696 86.8306H68.3041Z" fill="#B6C7D2"/>
</g>
<path d="M162.918 132.108H187.565C197.775 132.108 206.051 123.832 206.051 113.623C206.051 103.414 197.775 95.1375 187.565 95.1375H162.918C152.709 95.1375 144.433 103.414 144.433 113.623C144.433 123.832 152.709 132.108 162.918 132.108Z" fill="#B6C7D2"/>
</g>
<defs>
<linearGradient id="paint0_linear_602_15050" x1="128" y1="0" x2="128" y2="256" gradientUnits="userSpaceOnUse">
<stop stop-color="#3A4044"/>
<stop offset="1" stop-color="#2C3134"/>
</linearGradient>
<clipPath id="clip0_602_15050">
<rect width="256" height="256" fill="white"/>
</clipPath>
</defs>
</svg>
