<svg width="256" height="256" viewBox="0 0 256 256" fill="none" xmlns="http://www.w3.org/2000/svg">
<g clip-path="url(#clip0_1258_177)">
<path d="M256 0H0V256H256V0Z" fill="#16181E"/>
<path d="M256 0H0V256H256V0Z" fill="url(#paint0_linear_1258_177)"/>
<path d="M190.143 160.09H143.236C136.135 160.09 130.379 165.846 130.379 172.947V190.09C130.379 197.191 136.135 202.947 143.236 202.947H190.143C197.244 202.947 203 197.191 203 190.09V172.947C203 165.846 197.244 160.09 190.143 160.09Z" fill="white"/>
<path d="M53 65.8571C53 58.7561 58.7561 53 65.8571 53H190.143C197.244 53 203 58.7561 203 65.8571V136.571C203 143.672 197.244 149.429 190.143 149.429H132.524C125.423 149.429 119.667 155.185 119.667 162.286V190.143C119.667 197.244 113.91 203 106.81 203H65.8571C58.7561 203 53 197.244 53 190.143V119.429C53 112.328 58.7561 106.571 65.8571 106.571H130.976C133.935 106.571 136.333 104.173 136.333 101.214C136.333 98.2554 133.935 95.8571 130.976 95.8571H65.8571C58.7561 95.8571 53 90.101 53 83V65.8571Z" fill="white"/>
</g>
<defs>
<linearGradient id="paint0_linear_1258_177" x1="256" y1="0" x2="0" y2="256" gradientUnits="userSpaceOnUse">
<stop stop-color="#3150EE" stop-opacity="0.7"/>
<stop offset="1" stop-color="#3150EE"/>
</linearGradient>
<clipPath id="clip0_1258_177">
<rect width="256" height="256" rx="15" fill="white"/>
</clipPath>
</defs>
</svg>
