<svg width="256" height="256" viewBox="0 0 256 256" fill="none" xmlns="http://www.w3.org/2000/svg">
<rect width="256" height="256" fill="#16181E"/>
<rect width="256" height="256" fill="url(#paint0_linear_1182_474)"/>
<rect x="129.895" y="153.558" width="57.8389" height="34.1333" rx="10" fill="white"/>
<path d="M68.2666 78.2667C68.2666 72.7438 72.7438 68.2667 78.2666 68.2667H177.733C183.256 68.2667 187.733 72.7438 187.733 78.2667V135.067C187.733 140.59 183.256 145.067 177.733 145.067H131.363C125.84 145.067 121.363 149.544 121.363 155.067V177.733C121.363 183.256 116.886 187.733 111.363 187.733H78.2666C72.7437 187.733 68.2666 183.256 68.2666 177.733V120.933C68.2666 115.41 72.7438 110.933 78.2666 110.933H130.37C132.727 110.933 134.637 109.023 134.637 106.667V106.667C134.637 104.31 132.727 102.4 130.37 102.4H78.2666C72.7438 102.4 68.2666 97.9228 68.2666 92.4V78.2667Z" fill="white"/>
<defs>
<linearGradient id="paint0_linear_1182_474" x1="256" y1="0" x2="0" y2="256" gradientUnits="userSpaceOnUse">
<stop stop-color="#3150EE" stop-opacity="0.7"/>
<stop offset="1" stop-color="#3150EE"/>
</linearGradient>
</defs>
</svg>
