<svg width="256" height="256" viewBox="0 0 256 256" fill="none" xmlns="http://www.w3.org/2000/svg">
<mask id="mask0_1492_7145" style="mask-type:luminance" maskUnits="userSpaceOnUse" x="0" y="0" width="256" height="256">
<path d="M243 0H13C5.8203 0 0 5.8203 0 13V243C0 250.18 5.8203 256 13 256H243C250.18 256 256 250.18 256 243V13C256 5.8203 250.18 0 243 0Z" fill="white"/>
</mask>
<g mask="url(#mask0_1492_7145)">
<path fill-rule="evenodd" clip-rule="evenodd" d="M0 0H256V256H0V0ZM68.5262 87.053C58.2944 87.053 50 78.758 50 68.526C50 58.2944 58.2944 50 68.5262 50H187.918C198.15 50 206.444 58.2944 206.444 68.526C206.444 78.758 198.15 87.053 187.918 87.053H68.5262ZM68.5262 132.339C58.2944 132.339 50 124.045 50 113.813C50 103.581 58.2944 95.286 68.5262 95.286H93.2281C103.46 95.286 111.754 103.581 111.754 113.813C111.754 124.045 103.46 132.339 93.2281 132.339H68.5262ZM50 154.982C50 162.94 56.4512 169.392 64.4092 169.392H76.7602C84.7182 169.392 91.1694 162.94 91.1694 154.982C91.1694 147.024 84.7182 140.573 76.7602 140.573H64.4092C56.4512 140.573 50 147.024 50 154.982ZM64.4092 206.444C56.4512 206.444 50 199.993 50 192.035C50 184.077 56.4512 177.626 64.4092 177.626H97.3451C105.303 177.626 111.754 184.077 111.754 192.035C111.754 199.993 105.303 206.444 97.3451 206.444H64.4092ZM113.813 169.392C105.855 169.392 99.403 162.94 99.403 154.982C99.403 147.024 105.855 140.573 113.813 140.573H192.035C199.993 140.573 206.444 147.024 206.444 154.982C206.444 162.94 199.993 169.392 192.035 169.392H113.813ZM187.788 132.33H163.141C152.931 132.33 144.656 124.054 144.656 113.845C144.656 103.636 152.931 95.36 163.141 95.36H187.788C197.997 95.36 206.273 103.636 206.273 113.845C206.273 124.054 197.997 132.33 187.788 132.33Z" fill="white"/>
<path fill-rule="evenodd" clip-rule="evenodd" d="M0 0H256V256H0V0ZM68.5262 87.053C58.2944 87.053 50 78.758 50 68.526C50 58.2944 58.2944 50 68.5262 50H187.918C198.15 50 206.444 58.2944 206.444 68.526C206.444 78.758 198.15 87.053 187.918 87.053H68.5262ZM68.5262 132.339C58.2944 132.339 50 124.045 50 113.813C50 103.581 58.2944 95.286 68.5262 95.286H93.2281C103.46 95.286 111.754 103.581 111.754 113.813C111.754 124.045 103.46 132.339 93.2281 132.339H68.5262ZM50 154.982C50 162.94 56.4512 169.392 64.4092 169.392H76.7602C84.7182 169.392 91.1694 162.94 91.1694 154.982C91.1694 147.024 84.7182 140.573 76.7602 140.573H64.4092C56.4512 140.573 50 147.024 50 154.982ZM64.4092 206.444C56.4512 206.444 50 199.993 50 192.035C50 184.077 56.4512 177.626 64.4092 177.626H97.3451C105.303 177.626 111.754 184.077 111.754 192.035C111.754 199.993 105.303 206.444 97.3451 206.444H64.4092ZM113.813 169.392C105.855 169.392 99.403 162.94 99.403 154.982C99.403 147.024 105.855 140.573 113.813 140.573H192.035C199.993 140.573 206.444 147.024 206.444 154.982C206.444 162.94 199.993 169.392 192.035 169.392H113.813ZM187.788 132.33H163.141C152.931 132.33 144.656 124.054 144.656 113.845C144.656 103.636 152.931 95.36 163.141 95.36H187.788C197.997 95.36 206.273 103.636 206.273 113.845C206.273 124.054 197.997 132.33 187.788 132.33Z" fill="url(#paint0_linear_1492_7145)"/>
<path d="M68.5262 87.053C58.2944 87.053 50 78.758 50 68.526C50 58.2944 58.2944 50 68.5262 50H187.918C198.15 50 206.444 58.2944 206.444 68.526C206.444 78.758 198.15 87.053 187.918 87.053H68.5262Z" fill="white"/>
<path d="M68.5262 132.339C58.2944 132.339 50 124.045 50 113.813C50 103.581 58.2944 95.286 68.5262 95.286H93.2281C103.46 95.286 111.754 103.581 111.754 113.813C111.754 124.045 103.46 132.339 93.2281 132.339H68.5262Z" fill="white"/>
<path d="M187.788 132.33H163.141C152.931 132.33 144.656 124.054 144.656 113.845C144.656 103.636 152.931 95.36 163.141 95.36H187.788C197.997 95.36 206.273 103.636 206.273 113.845C206.273 124.054 197.997 132.33 187.788 132.33Z" fill="white"/>
<path d="M113.813 169.392C105.855 169.392 99.403 162.94 99.403 154.982C99.403 147.024 105.855 140.573 113.813 140.573H192.035C199.993 140.573 206.444 147.024 206.444 154.982C206.444 162.94 199.993 169.392 192.035 169.392H113.813Z" fill="white"/>
<path d="M50 154.982C50 162.94 56.4512 169.392 64.4092 169.392H76.7602C84.7182 169.392 91.1694 162.94 91.1694 154.982C91.1694 147.024 84.7182 140.573 76.7602 140.573H64.4092C56.4512 140.573 50 147.024 50 154.982Z" fill="white"/>
<path d="M64.4092 206.444C56.4512 206.444 50 199.993 50 192.035C50 184.077 56.4512 177.626 64.4092 177.626H97.3451C105.303 177.626 111.754 184.077 111.754 192.035C111.754 199.993 105.303 206.444 97.3451 206.444H64.4092Z" fill="white"/>
</g>
<defs>
<linearGradient id="paint0_linear_1492_7145" x1="266.273" y1="10.7735" x2="-42.5159" y2="176.594" gradientUnits="userSpaceOnUse">
<stop stop-color="#274EB5"/>
<stop offset="1" stop-color="#3468F2"/>
</linearGradient>
</defs>
</svg>
