<svg width="29" height="29" viewBox="0 0 29 29" fill="none" xmlns="http://www.w3.org/2000/svg">
<g clip-path="url(#clip0_256_4806)">
<path d="M22.9583 9.66667H20.7713C20.2275 8.72417 19.4783 7.91459 18.5721 7.29834L19.6958 6.17459C20.1671 5.70334 20.1671 4.94209 19.6958 4.47084C19.2246 3.99959 18.4633 3.99959 17.9921 4.47084L16.2158 6.24709C15.66 6.11417 15.0921 6.04167 14.5 6.04167C13.9079 6.04167 13.34 6.11417 12.7963 6.24709L11.0079 4.47084C10.5367 3.99959 9.77543 3.99959 9.30418 4.47084C8.83293 4.94209 8.83293 5.70334 9.30418 6.17459L10.4158 7.29834C9.52168 7.91459 8.77251 8.72417 8.22876 9.66667H6.04168C5.37709 9.66667 4.83334 10.2104 4.83334 10.875C4.83334 11.5396 5.37709 12.0833 6.04168 12.0833H7.35876C7.29834 12.4821 7.25001 12.8808 7.25001 13.2917V14.5H6.04168C5.37709 14.5 4.83334 15.0438 4.83334 15.7083C4.83334 16.3729 5.37709 16.9167 6.04168 16.9167H7.25001V18.125C7.25001 18.5358 7.29834 18.9346 7.35876 19.3333H6.04168C5.37709 19.3333 4.83334 19.8771 4.83334 20.5417C4.83334 21.2063 5.37709 21.75 6.04168 21.75H8.22876C9.48543 23.9129 11.8175 25.375 14.5 25.375C17.1825 25.375 19.5146 23.9129 20.7713 21.75H22.9583C23.6229 21.75 24.1667 21.2063 24.1667 20.5417C24.1667 19.8771 23.6229 19.3333 22.9583 19.3333H21.6413C21.7017 18.9346 21.75 18.5358 21.75 18.125V16.9167H22.9583C23.6229 16.9167 24.1667 16.3729 24.1667 15.7083C24.1667 15.0438 23.6229 14.5 22.9583 14.5H21.75V13.2917C21.75 12.8808 21.7017 12.4821 21.6413 12.0833H22.9583C23.6229 12.0833 24.1667 11.5396 24.1667 10.875C24.1667 10.2104 23.6229 9.66667 22.9583 9.66667ZM15.7083 19.3333H13.2917C12.6271 19.3333 12.0833 18.7896 12.0833 18.125C12.0833 17.4604 12.6271 16.9167 13.2917 16.9167H15.7083C16.3729 16.9167 16.9167 17.4604 16.9167 18.125C16.9167 18.7896 16.3729 19.3333 15.7083 19.3333ZM15.7083 14.5H13.2917C12.6271 14.5 12.0833 13.9563 12.0833 13.2917C12.0833 12.6271 12.6271 12.0833 13.2917 12.0833H15.7083C16.3729 12.0833 16.9167 12.6271 16.9167 13.2917C16.9167 13.9563 16.3729 14.5 15.7083 14.5Z" fill="white"/>
</g>
<defs>
<clipPath id="clip0_256_4806">
<rect width="29" height="29" fill="white"/>
</clipPath>
</defs>
</svg>
