<svg width="24" height="24" viewBox="0 0 24 24" fill="none" xmlns="http://www.w3.org/2000/svg">
<path d="M19.3783 5.43512C17.9816 4.80918 16.5072 4.36512 14.9928 4.11429C14.7855 4.47696 14.5979 4.85011 14.431 5.23216C12.8177 4.99418 11.1772 4.99418 9.56393 5.23216C9.39683 4.85015 9.20932 4.47701 9.00215 4.11429C7.48668 4.36724 6.01133 4.81236 4.61331 5.43839C1.83789 9.45819 1.08551 13.3781 1.4617 17.2424C3.08705 18.418 4.90629 19.3121 6.84033 19.8857C7.27582 19.3124 7.66118 18.7041 7.9923 18.0674C7.36338 17.8374 6.75634 17.5537 6.17824 17.2195C6.33039 17.1116 6.47919 17.0002 6.62298 16.8922C8.30511 17.6666 10.1411 18.0682 11.9999 18.0682C13.8588 18.0682 15.6948 17.6666 17.3769 16.8922C17.5223 17.0084 17.6712 17.1197 17.8216 17.2195C17.2424 17.5543 16.6343 17.8385 16.0043 18.0691C16.335 18.7055 16.7204 19.3132 17.1562 19.8857C19.0919 19.3144 20.9126 18.4208 22.5382 17.2441C22.9796 12.7628 21.7842 8.87879 19.3783 5.43512ZM8.4688 14.866C7.4205 14.866 6.55443 13.9347 6.55443 12.789C6.55443 11.6433 7.3904 10.7037 8.46546 10.7037C9.54053 10.7037 10.3999 11.6433 10.3815 12.789C10.3631 13.9347 9.53718 14.866 8.4688 14.866ZM15.531 14.866C14.4811 14.866 13.6183 13.9347 13.6183 12.789C13.6183 11.6433 14.4544 10.7037 15.531 10.7037C16.6078 10.7037 17.4605 11.6433 17.4421 12.789C17.4237 13.9347 16.5994 14.866 15.531 14.866Z" fill="#DDF2FF"/>
</svg>
