<svg width="29" height="29" viewBox="0 0 29 29" fill="none" xmlns="http://www.w3.org/2000/svg">
<path d="M23.4154 6.56743C21.7278 5.81109 19.9461 5.27452 18.1163 4.97143C17.8658 5.40966 17.6392 5.86055 17.4374 6.32219C15.4881 6.03464 13.5057 6.03464 11.5564 6.32219C11.3545 5.8606 11.1279 5.40972 10.8776 4.97143C9.04641 5.27708 7.26369 5.81493 5.57442 6.57139C2.22078 11.4286 1.31166 16.1653 1.76622 20.8346C3.73019 22.2551 5.92843 23.3355 8.2654 24.0286C8.79162 23.3358 9.25726 22.6007 9.65736 21.8315C8.89742 21.5536 8.16391 21.2107 7.46537 20.8069C7.64922 20.6765 7.82902 20.5419 8.00277 20.4114C10.0353 21.3471 12.2538 21.8324 14.4999 21.8324C16.7461 21.8324 18.9645 21.3471 20.9971 20.4114C21.1728 20.5518 21.3527 20.6863 21.5345 20.8069C20.8345 21.2115 20.0998 21.5548 19.3385 21.8335C19.7381 22.6024 20.2038 23.3368 20.7304 24.0286C23.0694 23.3382 25.2694 22.2585 27.2337 20.8366C27.767 15.4217 26.3225 10.7285 23.4154 6.56743ZM10.2331 17.963C8.96644 17.963 7.91994 16.8377 7.91994 15.4533C7.91994 14.0689 8.93007 12.9337 10.2291 12.9337C11.5281 12.9337 12.5665 14.0689 12.5443 15.4533C12.5221 16.8377 11.5241 17.963 10.2331 17.963ZM18.7667 17.963C17.498 17.963 16.4555 16.8377 16.4555 15.4533C16.4555 14.0689 17.4657 12.9337 18.7667 12.9337C20.0678 12.9337 21.0981 14.0689 21.0758 15.4533C21.0536 16.8377 20.0576 17.963 18.7667 17.963Z" fill="white"/>
</svg>
