<svg width="35" height="35" viewBox="0 0 35 35" fill="none" xmlns="http://www.w3.org/2000/svg">
<path d="M28.26 7.92621C26.2232 7.01339 24.0729 6.3658 21.8644 6C21.5621 6.5289 21.2887 7.07308 21.0452 7.63023C18.6925 7.28319 16.3 7.28319 13.9474 7.63023C13.7037 7.07313 13.4303 6.52897 13.1281 6C10.9181 6.36889 8.76652 7.01802 6.72775 7.93099C2.68026 13.7932 1.58304 19.5098 2.13164 25.1452C4.50195 26.8596 7.15501 28.1635 9.97548 29C10.6106 28.1639 11.1726 27.2768 11.6554 26.3483C10.7383 26.0129 9.853 25.5991 9.00993 25.1118C9.23182 24.9544 9.44882 24.7919 9.65851 24.6345C12.1116 25.7638 14.7891 26.3494 17.4998 26.3494C20.2108 26.3494 22.8882 25.7638 25.3413 24.6345C25.5534 24.8039 25.7705 24.9662 25.9899 25.1118C25.1451 25.6 24.2584 26.0144 23.3396 26.3507C23.8219 27.2788 24.3839 28.1651 25.0194 29C27.8423 28.1668 30.4975 26.8637 32.8683 25.1476C33.5119 18.6124 31.7686 12.9482 28.26 7.92621ZM12.3503 21.6795C10.8216 21.6795 9.55855 20.3214 9.55855 18.6506C9.55855 16.9797 10.7777 15.6096 12.3455 15.6096C13.9133 15.6096 15.1665 16.9797 15.1397 18.6506C15.1129 20.3214 13.9084 21.6795 12.3503 21.6795ZM22.6494 21.6795C21.1183 21.6795 19.8601 20.3214 19.8601 18.6506C19.8601 16.9797 21.0793 15.6096 22.6494 15.6096C24.2198 15.6096 25.4633 16.9797 25.4363 18.6506C25.4096 20.3214 24.2075 21.6795 22.6494 21.6795Z" fill="white"/>
</svg>
