<svg width="35" height="35" viewBox="0 0 35 35" fill="none" xmlns="http://www.w3.org/2000/svg">
<g clip-path="url(#clip0_1353_2744)">
<path d="M29.8962 16.0417H27.7087V10.2083C27.7087 8.60416 26.3962 7.29166 24.792 7.29166H18.9587V5.10416C18.9587 3.09166 17.3253 1.45833 15.3128 1.45833C13.3003 1.45833 11.667 3.09166 11.667 5.10416V7.29166H5.83366C4.22949 7.29166 2.93158 8.60416 2.93158 10.2083V15.75H5.10449C7.27741 15.75 9.04199 17.5146 9.04199 19.6875C9.04199 21.8604 7.27741 23.625 5.10449 23.625H2.91699V29.1667C2.91699 30.7708 4.22949 32.0833 5.83366 32.0833H11.3753V29.8958C11.3753 27.7229 13.1399 25.9583 15.3128 25.9583C17.4857 25.9583 19.2503 27.7229 19.2503 29.8958V32.0833H24.792C26.3962 32.0833 27.7087 30.7708 27.7087 29.1667V23.3333H29.8962C31.9087 23.3333 33.542 21.7 33.542 19.6875C33.542 17.675 31.9087 16.0417 29.8962 16.0417Z" fill="white"/>
</g>
<defs>
<clipPath id="clip0_1353_2744">
<rect width="35" height="35" fill="white"/>
</clipPath>
</defs>
</svg>
