<svg width="35" height="35" viewBox="0 0 35 35" fill="none" xmlns="http://www.w3.org/2000/svg">
    <g clip-path="url(#clip0_1627_1667)">
        <path d="M29.8952 16.0413H27.7077V10.208C27.7077 8.60384 26.3952 7.29134 24.791 7.29134H18.9577V5.10384C18.9577 3.09134 17.3243 1.45801 15.3118 1.45801C13.2993 1.45801 11.666 3.09134 11.666 5.10384V7.29134H5.83268C4.22852 7.29134 2.9306 8.60384 2.9306 10.208V15.7497H5.10352C7.27643 15.7497 9.04102 17.5143 9.04102 19.6872C9.04102 21.8601 7.27643 23.6247 5.10352 23.6247H2.91602V29.1663C2.91602 30.7705 4.22852 32.083 5.83268 32.083H11.3743V29.8955C11.3743 27.7226 13.1389 25.958 15.3118 25.958C17.4848 25.958 19.2493 27.7226 19.2493 29.8955V32.083H24.791C26.3952 32.083 27.7077 30.7705 27.7077 29.1663V23.333H29.8952C31.9077 23.333 33.541 21.6997 33.541 19.6872C33.541 17.6747 31.9077 16.0413 29.8952 16.0413Z" fill="#8F94A8"/>
    </g>
    <defs>
        <clipPath id="clip0_1627_1667">
            <rect width="35" height="35" fill="white"/>
        </clipPath>
    </defs>
</svg>
