<svg width="29" height="29" viewBox="0 0 29 29" fill="none" xmlns="http://www.w3.org/2000/svg">
<g clip-path="url(#clip0_87_7817)">
<path d="M24.7708 13.2917H22.9583V8.45834C22.9583 7.12917 21.8708 6.04167 20.5417 6.04167H15.7083V4.22917C15.7083 2.56167 14.355 1.20834 12.6875 1.20834C11.02 1.20834 9.66666 2.56167 9.66666 4.22917V6.04167H4.83333C3.50416 6.04167 2.42875 7.12917 2.42875 8.45834V13.05H4.22916C6.02958 13.05 7.49166 14.5121 7.49166 16.3125C7.49166 18.1129 6.02958 19.575 4.22916 19.575H2.41666V24.1667C2.41666 25.4958 3.50416 26.5833 4.83333 26.5833H9.425V24.7708C9.425 22.9704 10.8871 21.5083 12.6875 21.5083C14.4879 21.5083 15.95 22.9704 15.95 24.7708V26.5833H20.5417C21.8708 26.5833 22.9583 25.4958 22.9583 24.1667V19.3333H24.7708C26.4383 19.3333 27.7917 17.98 27.7917 16.3125C27.7917 14.645 26.4383 13.2917 24.7708 13.2917Z" fill="white"/>
</g>
<defs>
<clipPath id="clip0_87_7817">
<rect width="29" height="29" fill="white"/>
</clipPath>
</defs>
</svg>
