<svg width="85" height="85" viewBox="0 0 85 85" fill="none" xmlns="http://www.w3.org/2000/svg">
<g clip-path="url(#clip0_624_15569)">
<mask id="mask0_624_15569" style="mask-type:luminance" maskUnits="userSpaceOnUse" x="0" y="0" width="85" height="85">
<path d="M79.0972 0H5.90278C2.64276 0 0 2.64276 0 5.90278V79.0972C0 82.3572 2.64276 85 5.90278 85H79.0972C82.3572 85 85 82.3572 85 79.0972V5.90278C85 2.64276 82.3572 0 79.0972 0Z" fill="white"/>
</mask>
<g mask="url(#mask0_624_15569)">
<path fill-rule="evenodd" clip-rule="evenodd" d="M85 0H0V85H85V0Z" fill="url(#paint0_linear_624_15569)"/>
<path d="M21.3122 56.1696C18.6698 56.1696 16.5278 54.0276 16.5278 51.3853C16.5278 48.7429 18.6698 46.601 21.3122 46.601H25.413C28.0554 46.601 30.1974 48.7429 30.1974 51.3853C30.1974 54.0276 28.0554 56.1696 25.413 56.1696H21.3122Z" fill="#2C3134"/>
<path d="M16.5278 63.6879C16.5278 66.3302 18.6698 68.4722 21.3122 68.4722H32.2479C34.8902 68.4722 37.0322 66.3302 37.0322 63.6879C37.0322 61.0456 34.8902 58.9034 32.2479 58.9034H21.3122C18.6698 58.9034 16.5278 61.0456 16.5278 63.6879Z" fill="#2C3134"/>
<path d="M22.6791 43.867C19.2818 43.867 16.5278 41.113 16.5278 37.7157C16.5278 34.3184 19.2818 31.5643 22.6791 31.5643H30.8809C34.2782 31.5643 37.0322 34.3184 37.0322 37.7157C37.0322 41.113 34.2782 43.867 30.8809 43.867H22.6791Z" fill="#2C3134"/>
<path d="M32.9313 51.3853C32.9313 54.0276 35.0734 56.1696 37.7157 56.1696H63.6879C66.3303 56.1696 68.4723 54.0276 68.4723 51.3853C68.4723 48.7429 66.3303 46.601 63.6879 46.601H37.7157C35.0734 46.601 32.9313 48.7429 32.9313 51.3853Z" fill="#2C3134"/>
<path d="M22.6791 28.8305C19.2818 28.8305 16.5278 26.0764 16.5278 22.6791C16.5278 19.2818 19.2818 16.5278 22.6791 16.5278H62.321C65.7183 16.5278 68.4723 19.2818 68.4723 22.6791C68.4723 26.0764 65.7183 28.8305 62.321 28.8305H22.6791Z" fill="#2C3134"/>
</g>
<path d="M54.094 43.864H62.2776C65.6674 43.864 68.4153 41.1161 68.4153 37.7263C68.4153 34.3366 65.6674 31.5886 62.2776 31.5886H54.094C50.7043 31.5886 47.9564 34.3366 47.9564 37.7263C47.9564 41.1161 50.7043 43.864 54.094 43.864Z" fill="#2C3134"/>
</g>
<defs>
<linearGradient id="paint0_linear_624_15569" x1="42.5" y1="0" x2="42.5" y2="85" gradientUnits="userSpaceOnUse">
<stop stop-color="#D2E5F1"/>
<stop offset="1" stop-color="#B6C7D2"/>
</linearGradient>
<clipPath id="clip0_624_15569">
<rect width="85" height="85" fill="white"/>
</clipPath>
</defs>
</svg>
