<svg width="20" height="20" viewBox="0 0 20 20" fill="none" xmlns="http://www.w3.org/2000/svg">
<g clip-path="url(#clip0_1430_566)">
<path fill-rule="evenodd" clip-rule="evenodd" d="M0 0H20V20H0V0ZM4.56684 6.56239C4.15958 6.30627 3.88892 5.85287 3.88892 5.33625C3.88892 4.53689 4.53692 3.88889 5.33628 3.88889H14.6638C15.4631 3.88889 16.1111 4.53689 16.1111 5.33625C16.1111 5.8543 15.839 6.30879 15.4298 6.56452C15.2056 6.70776 14.9392 6.79078 14.6534 6.79078H5.34658C5.05937 6.79078 4.79175 6.70693 4.56684 6.56239ZM7.43968 10.3113C7.38277 10.3181 7.32485 10.3216 7.26611 10.3216H5.33628C4.53692 10.3216 3.88892 9.67363 3.88892 8.87427C3.88892 8.07491 4.53692 7.42689 5.33628 7.42689H7.26611C7.73195 7.42689 8.14638 7.64696 8.41112 7.98882C8.60234 8.23376 8.71628 8.54196 8.71628 8.87678C8.71628 9.61769 8.15833 10.2283 7.43968 10.3113ZM4.80948 10.9836C4.87944 10.9699 4.95172 10.9628 5.02567 10.9628H5.98842C6.60878 10.9628 7.11167 11.4657 7.11167 12.086C7.11167 12.4199 6.96595 12.7198 6.73464 12.9256C6.53494 13.1063 6.2701 13.2164 5.97956 13.2164H5.01464C4.39292 13.2164 3.88892 12.7124 3.88892 12.0906C3.88892 11.539 4.28572 11.08 4.80948 10.9836ZM4.36273 14.0675C4.54854 13.9314 4.77772 13.8511 5.02567 13.8511H7.59305C8.21339 13.8511 8.71628 14.354 8.71628 14.9743C8.71628 15.0696 8.70441 15.1621 8.68208 15.2505C8.56289 15.7443 8.11816 16.1111 7.58775 16.1111H5.01464C4.39292 16.1111 3.88892 15.6071 3.88892 14.9854C3.88892 14.6066 4.07597 14.2716 4.36273 14.0675ZM8.25378 11.1512C8.43206 11.0322 8.6463 10.9628 8.87675 10.9628H14.9743C15.0478 10.9628 15.1196 10.9698 15.1891 10.9833C15.7136 11.0792 16.1111 11.5385 16.1111 12.0906C16.1111 12.7124 15.6071 13.2164 14.9854 13.2164H8.8743C8.25258 13.2164 7.74855 12.7124 7.74855 12.0906C7.74855 11.6982 7.94934 11.3527 8.25378 11.1512ZM12.6535 10.3191C12.6781 10.3203 12.7029 10.3209 12.7278 10.3209C12.7279 10.3209 12.728 10.3209 12.728 10.3209H14.6536C15.4512 10.3209 16.0977 9.67436 16.0977 8.87678C16.0977 8.0916 15.4711 7.45276 14.6907 7.43308C14.6783 7.43277 14.666 7.43262 14.6536 7.43261C14.6535 7.43261 14.6535 7.43261 14.6534 7.43261H12.7278C11.9303 7.43261 11.2837 8.07919 11.2837 8.87678C11.2837 9.64944 11.8905 10.2804 12.6535 10.3191Z" fill="#E4E5EA"/>
</g>
<defs>
<clipPath id="clip0_1430_566">
<rect width="20" height="20" rx="2" fill="white"/>
</clipPath>
</defs>
</svg>
