<svg width="20" height="20" viewBox="0 0 20 20" fill="none" xmlns="http://www.w3.org/2000/svg">
<path d="M10.3171 15.993C10.3171 15.0462 11.0847 14.2787 12.0314 14.2787H18.2857C19.2325 14.2787 20 15.0462 20 15.993V18.2787C20 19.2255 19.2325 19.993 18.2857 19.993H12.0314C11.0846 19.993 10.3171 19.2255 10.3171 18.2787V15.993Z" fill="#E4E5EA"/>
<path d="M0 1.71429C0 0.767512 0.767512 0 1.71429 0H18.2857C19.2325 0 20 0.767512 20 1.71429V11.1429C20 12.0896 19.2325 12.8571 18.2857 12.8571H10.6032C9.6564 12.8571 8.88889 13.6247 8.88889 14.5714V18.2857C8.88889 19.2325 8.12138 20 7.1746 20H1.71428C0.767511 20 0 19.2325 0 18.2857V8.85714C0 7.91037 0.767512 7.14286 1.71429 7.14286H10.3968C10.7913 7.14286 11.1111 6.82306 11.1111 6.42857C11.1111 6.03408 10.7913 5.71429 10.3968 5.71429H1.71429C0.767513 5.71429 0 4.94677 0 4V1.71429Z" fill="#E4E5EA"/>
</svg>
